<?xml version="1.0" standalone="no"?><!DOCTYPE svg PUBLIC "-//W3C//DTD SVG 1.1//EN" "http://www.w3.org/Graphics/SVG/1.1/DTD/svg11.dtd"><svg t="1609902059892" class="icon" viewBox="0 0 1024 1024" version="1.1" xmlns="http://www.w3.org/2000/svg" p-id="6032" xmlns:xlink="http://www.w3.org/1999/xlink" width="200" height="200"><defs><style type="text/css"></style></defs><path d="M512.46 193.573c-90.154 0-163.493 72.018-163.493 160.512 0 88.476 73.339 160.416 163.493 160.416 90.149 0 163.449-71.94 163.449-160.416C675.909 265.586 602.609 193.573 512.46 193.573M512.46 443.429c-50.116 0-90.888-40.09-90.888-89.378 0-49.276 40.771-89.384 90.888-89.384 50.082 0 90.849 40.107 90.849 89.384C603.309 403.337 562.542 443.429 512.46 443.429M895.11 377.906c0-207.235-171.655-375.823-382.65-375.823-210.958 0-382.542 168.588-382.542 375.823 0 162.531 235.576 490.029 336.917 623.266 10.667 14.059 27.74 22.416 45.627 22.416 17.846 0 34.955-8.354 45.662-22.416C659.427 867.936 895.11 540.48 895.11 377.906M518.492 944.288l-6.032 8.021-6.037-8.021C315.12 690.093 196.191 473.05 196.191 377.906c0-171.303 141.85-310.673 316.269-310.673 174.378 0 316.234 139.37 316.234 310.673C828.729 473.086 709.873 690.093 518.492 944.288" p-id="6033" fill="#d4237a"></path></svg>